<svg width="79" height="79" viewBox="0 0 79 79" fill="none" xmlns="http://www.w3.org/2000/svg">
<g clip-path="url(#clip0_2012_5536)">
<mask id="mask0_2012_5536" style="mask-type:luminance" maskUnits="userSpaceOnUse" x="0" y="0" width="79" height="79">
<path d="M79 0H0V79H79V0Z" fill="white"/>
</mask>
<g mask="url(#mask0_2012_5536)">
<path d="M39.5 72.4163C57.6793 72.4163 72.4167 57.6789 72.4167 39.4997C72.4167 21.3203 57.6793 6.58301 39.5 6.58301C21.3207 6.58301 6.58337 21.3203 6.58337 39.4997C6.58337 57.6789 21.3207 72.4163 39.5 72.4163Z" fill="#E9C81A"/>
<path d="M28.5713 39.2029L34.0027 40.5525L30.8755 53.1925C30.1514 56.155 31.5996 57.1428 34.1014 55.3983L51.1523 43.5809C53.226 42.1325 52.9298 40.4538 50.461 39.8284L45.0298 38.4788L48.1569 25.8388C48.881 22.8763 47.4327 21.8889 44.931 23.6334L27.8801 35.4508C25.8064 36.8991 26.1026 38.5775 28.5713 39.2029Z" fill="#0D7CC1"/>
</g>
</g>
<defs>
<clipPath id="clip0_2012_5536">
<rect width="79" height="79" fill="white"/>
</clipPath>
</defs>
</svg>
