<svg width="67" height="67" viewBox="0 0 67 67" fill="none" xmlns="http://www.w3.org/2000/svg">
<g clip-path="url(#clip0_2012_5498)">
<mask id="mask0_2012_5498" style="mask-type:luminance" maskUnits="userSpaceOnUse" x="0" y="0" width="67" height="67">
<path d="M67 0H0V67H67V0Z" fill="white"/>
</mask>
<g mask="url(#mask0_2012_5498)">
<path d="M60.4946 19.4011C58.708 13.3432 53.655 8.29027 47.5971 6.5036C42.9909 5.1636 39.8084 5.27527 37.603 6.92235C34.9509 8.90444 34.6438 12.4778 34.6438 15.0182V21.9694C34.6438 28.8369 37.7705 32.3265 43.9121 32.3265H51.9242C54.4367 32.3265 58.038 32.0194 60.0201 29.3673C61.723 27.1899 61.8626 24.0074 60.4946 19.4011Z" fill="#0D7CC1"/>
<path d="M52.7902 37.2953C52.0644 36.4578 51.0035 35.9833 49.9148 35.9833H39.9206C35.0073 35.9833 31.0152 31.9912 31.0152 27.0778V17.0836C31.0152 15.9948 30.5406 14.934 29.7031 14.2082C28.8935 13.4823 27.7769 13.1473 26.716 13.2869C20.1556 14.1244 14.1256 17.7257 10.1894 23.1415C6.22519 28.5853 4.77353 35.2295 6.02978 41.8737C7.84436 51.477 15.5214 59.1541 25.1527 60.9687C26.6881 61.2757 28.2235 61.4153 29.7589 61.4153C34.8119 61.4153 39.6973 59.852 43.8569 56.8091C49.2727 52.8728 52.8739 46.8428 53.7114 40.2824C53.851 39.1937 53.516 38.1049 52.7902 37.2953Z" fill="#E9C81A"/>
</g>
</g>
<defs>
<clipPath id="clip0_2012_5498">
<rect width="67" height="67" fill="white"/>
</clipPath>
</defs>
</svg>
