<svg width="42" height="42" viewBox="0 0 42 42" fill="none" xmlns="http://www.w3.org/2000/svg">
<g clip-path="url(#clip0_2153_4155)">
<path d="M-7 0H49V12H-7V0Z" fill="#0D7CC1"/>
<path d="M11.3423 29.844H8V20.156H11.3942C14.2831 20.156 16.0838 22.0156 16.0838 24.9935C16.0838 27.9779 14.296 29.844 11.3423 29.844ZM9.86549 28.251H11.2387C13.2596 28.251 14.2053 27.0806 14.2053 24.9935C14.2053 22.9129 13.2467 21.749 11.2711 21.749H9.86549V28.251Z" fill="#E9C81A"/>
<path d="M17.4083 29.844V20.156H24.2355V21.7685H19.2738V24.1482H23.8598V25.7282H19.2738V28.2315H24.2355V29.844H17.4083Z" fill="#E9C81A"/>
<path d="M29.7897 30C27.134 30 25.2231 28.0559 25.2231 25.0065C25.2231 21.9311 27.134 20 29.7897 20C32.0179 20 33.6826 21.3849 34 23.5306H32.1086C31.8625 22.3472 31.001 21.6645 29.8156 21.6645C28.112 21.6645 27.1016 22.9779 27.1016 25.0065C27.1016 27.0286 28.112 28.3355 29.8156 28.3355C30.9945 28.3355 31.856 27.6593 32.1086 26.4824H34C33.6891 28.6281 32.0179 30 29.7897 30Z" fill="#E9C81A"/>
<path d="M16.9231 6C16.9231 7.10457 16.0449 8 14.9615 8C13.8782 8 13 7.10457 13 6C13 4.89543 13.8782 4 14.9615 4C16.0449 4 16.9231 4.89543 16.9231 6Z" fill="#E9C81A"/>
<path d="M23.4615 6C23.4615 7.10457 22.5833 8 21.5 8C20.4167 8 19.5385 7.10457 19.5385 6C19.5385 4.89543 20.4167 4 21.5 4C22.5833 4 23.4615 4.89543 23.4615 6Z" fill="#E9C81A"/>
<path d="M30 6C30 7.10457 29.1218 8 28.0385 8C26.9551 8 26.0769 7.10457 26.0769 6C26.0769 4.89543 26.9551 4 28.0385 4C29.1218 4 30 4.89543 30 6Z" fill="#E9C81A"/>
</g>
<rect x="0.5" y="0.5" width="41" height="41" rx="9.5" stroke="#0D7CC1"/>
<defs>
<clipPath id="clip0_2153_4155">
<rect width="42" height="42" rx="10" fill="white"/>
</clipPath>
</defs>
</svg>
