<svg width="120" height="120" viewBox="0 0 120 120" fill="none" xmlns="http://www.w3.org/2000/svg">
<rect width="120" height="120" rx="20" fill="#FEFBF1"/>
<g clip-path="url(#clip0_2058_4184)">
<path d="M60 36C55.1448 35.9997 50.4037 37.472 46.4028 40.2224C42.4018 42.9728 39.329 46.872 37.5903 51.4051C35.8516 55.9383 35.5286 60.8922 36.6641 65.6127C37.7995 70.3332 40.34 74.5984 43.95 77.845C45.4557 74.8822 47.7522 72.3942 50.5851 70.6565C53.418 68.9188 56.6766 67.9994 60 68C58.0222 68 56.0888 67.4135 54.4443 66.3147C52.7998 65.2159 51.5181 63.6541 50.7612 61.8268C50.0043 59.9996 49.8063 57.9889 50.1921 56.0491C50.578 54.1093 51.5304 52.3274 52.9289 50.9289C54.3275 49.5304 56.1093 48.578 58.0491 48.1921C59.9889 47.8063 61.9996 48.0043 63.8268 48.7612C65.6541 49.5181 67.2159 50.7998 68.3147 52.4443C69.4135 54.0888 70 56.0222 70 58C70 60.6521 68.9464 63.1957 67.0711 65.071C65.1957 66.9464 62.6522 68 60 68C63.3231 67.9991 66.5816 68.9182 69.4145 70.6555C72.2473 72.3927 74.544 74.8802 76.05 77.8425C79.6591 74.5957 82.1987 70.3307 83.3336 65.6106C84.4685 60.8906 84.1453 55.9373 82.4067 51.4047C80.6681 46.8721 77.5958 42.9733 73.5954 40.223C69.595 37.4727 64.8546 36.0003 60 36Z" fill="#E9C81A"/>
<path d="M68 58C68 53.5817 64.4183 50 60 50C55.5817 50 52 53.5817 52 58C52 62.4183 55.5817 66 60 66C64.4183 66 68 62.4183 68 58ZM72 58C72 64.6274 66.6274 70 60 70C53.3726 70 48 64.6274 48 58C48 51.3726 53.3726 46 60 46C66.6274 46 72 51.3726 72 58Z" fill="#0D7CC1"/>
<path d="M60 65.9912C63.6934 65.9912 67.3147 67.014 70.4624 68.946C73.6101 70.8781 76.1613 73.644 77.8332 76.9373C78.3333 77.9222 77.9402 79.1259 76.9553 79.626C75.9704 80.126 74.7666 79.733 74.2666 78.748C72.929 76.1135 70.888 73.9006 68.3699 72.355C65.8517 70.8093 62.9547 69.9912 60 69.9912C57.0453 69.9912 54.1483 70.8094 51.6301 72.355C49.112 73.9006 47.071 76.1135 45.7334 78.748C45.2334 79.7329 44.0296 80.126 43.0447 79.626C42.0598 79.1259 41.6665 77.9222 42.1665 76.9373C43.8385 73.644 46.3899 70.8781 49.5376 68.946C52.6853 67.014 56.3066 65.9912 60 65.9912Z" fill="#0D7CC1"/>
<path d="M48.3934 36.7468C53.3189 34.2819 58.9006 33.4462 64.3321 34.3603C65.4213 34.5437 66.1556 35.5753 65.9722 36.6645C65.7889 37.7538 64.7573 38.4882 63.668 38.3049C59.0729 37.5316 54.3508 38.2386 50.1837 40.324C46.0165 42.4094 42.6198 45.7651 40.4842 49.9067C38.3486 54.0484 37.5847 58.7617 38.3026 63.366C39.0204 67.9702 41.1829 72.2272 44.4779 75.5222C47.7729 78.8172 52.0299 80.9799 56.6341 81.6978C61.2383 82.4156 65.9516 81.6514 70.0933 79.5159C74.235 77.3803 77.591 73.9838 79.6764 69.8167C81.7617 65.6495 82.4688 60.9273 81.6954 56.332C81.5121 55.2428 82.2463 54.2112 83.3355 54.0278C84.4248 53.8445 85.4564 54.579 85.6397 55.6682C86.5539 61.0997 85.7182 66.6812 83.2533 71.6067C80.7884 76.5322 76.822 80.5469 71.9266 83.071C67.0312 85.5952 61.46 86.4984 56.0179 85.6499C50.5758 84.8014 45.5441 82.2452 41.6495 78.3506C37.7548 74.4559 35.1986 69.4243 34.3502 63.9822C33.5017 58.5401 34.4048 52.9691 36.929 48.0737C39.4532 43.1783 43.4679 39.2117 48.3934 36.7468Z" fill="#0D7CC1"/>
<path d="M84.5858 36.5858C85.3668 35.8047 86.6333 35.8047 87.4144 36.5858C88.1954 37.3668 88.1954 38.6334 87.4144 39.4144L79.4144 47.4144C78.6333 48.1954 77.3668 48.1954 76.5858 47.4144L72.5858 43.4144C71.8047 42.6333 71.8047 41.3668 72.5858 40.5858C73.3668 39.8047 74.6334 39.8047 75.4144 40.5858L78.0001 43.1715L84.5858 36.5858Z" fill="#0D7CC1"/>
</g>
<defs>
<clipPath id="clip0_2058_4184">
<rect width="64" height="64" fill="white" transform="translate(28 28)"/>
</clipPath>
</defs>
</svg>
