<svg width="120" height="120" viewBox="0 0 120 120" fill="none" xmlns="http://www.w3.org/2000/svg">
<rect width="120" height="120" rx="20" fill="#FEFBF1"/>
<g clip-path="url(#clip0_2058_4168)">
<path d="M82 40H38C36.8954 40 36 40.8954 36 42V72C36 73.1046 36.8954 74 38 74H82C83.1046 74 84 73.1046 84 72V42C84 40.8954 83.1046 40 82 40Z" fill="#E9C81A"/>
<path d="M38 42V72H82V42H38ZM86 72C86 74.2091 84.2091 76 82 76H38C35.7909 76 34 74.2091 34 72V42C34 39.7909 35.7909 38 38 38H82C84.2091 38 86 39.7909 86 42V72Z" fill="#0D7CC1"/>
<path d="M66.7504 72.4383C67.6129 71.7483 68.8716 71.8881 69.5616 72.7506L77.5616 82.7508C78.2516 83.6133 78.1118 84.8719 77.2494 85.5619C76.3869 86.2519 75.1281 86.1121 74.4381 85.2496L66.4381 75.2496C65.7481 74.3871 65.8879 73.1284 66.7504 72.4383Z" fill="#0D7CC1"/>
<path d="M50.4383 72.7506C51.1283 71.8881 52.3871 71.7483 53.2496 72.4383C54.112 73.1284 54.2518 74.3871 53.5618 75.2496L45.5618 85.2496C44.8718 86.1121 43.6131 86.2519 42.7506 85.5619C41.8881 84.8719 41.7484 83.6133 42.4383 82.7508L50.4383 72.7506Z" fill="#0D7CC1"/>
<path d="M50 64V58C50 56.8954 50.8954 56 52 56C53.1046 56 54 56.8954 54 58V64C54 65.1046 53.1046 66 52 66C50.8954 66 50 65.1046 50 64Z" fill="#0D7CC1"/>
<path d="M58 64V54C58 52.8954 58.8954 52 60 52C61.1046 52 62 52.8954 62 54V64C62 65.1046 61.1046 66 60 66C58.8954 66 58 65.1046 58 64Z" fill="#0D7CC1"/>
<path d="M66 64V50C66 48.8954 66.8954 48 68 48C69.1046 48 70 48.8954 70 50V64C70 65.1046 69.1046 66 68 66C66.8954 66 66 65.1046 66 64Z" fill="#0D7CC1"/>
<path d="M58 40V34C58 32.8954 58.8954 32 60 32C61.1046 32 62 32.8954 62 34V40C62 41.1046 61.1046 42 60 42C58.8954 42 58 41.1046 58 40Z" fill="#0D7CC1"/>
</g>
<defs>
<clipPath id="clip0_2058_4168">
<rect width="64" height="64" fill="white" transform="translate(28 28)"/>
</clipPath>
</defs>
</svg>
