<svg width="120" height="120" viewBox="0 0 120 120" fill="none" xmlns="http://www.w3.org/2000/svg">
<rect width="120" height="120" rx="20" fill="#FEFBF1"/>
<g clip-path="url(#clip0_2058_4176)">
<path d="M82 50H38V40C38 39.4696 38.2107 38.9609 38.5858 38.5858C38.9609 38.2107 39.4696 38 40 38H80C80.5304 38 81.0391 38.2107 81.4142 38.5858C81.7893 38.9609 82 39.4696 82 40V50Z" fill="#E9C81A"/>
<path d="M40 40V80H80V40H40ZM84 80C84 82.2091 82.2091 84 80 84H40C37.7909 84 36 82.2091 36 80V40C36 37.7909 37.7909 36 40 36H80C82.2091 36 84 37.7909 84 40V80Z" fill="#0D7CC1"/>
<path d="M70 42V34C70 32.8954 70.8954 32 72 32C73.1046 32 74 32.8954 74 34V42C74 43.1046 73.1046 44 72 44C70.8954 44 70 43.1046 70 42Z" fill="#0D7CC1"/>
<path d="M46 42V34C46 32.8954 46.8954 32 48 32C49.1046 32 50 32.8954 50 34V42C50 43.1046 49.1046 44 48 44C46.8954 44 46 43.1046 46 42Z" fill="#0D7CC1"/>
<path d="M82 48C83.1046 48 84 48.8954 84 50C84 51.1046 83.1046 52 82 52H38C36.8954 52 36 51.1046 36 50C36 48.8954 36.8954 48 38 48H82Z" fill="#0D7CC1"/>
<path d="M67.5858 58.5858C68.3668 57.8047 69.6334 57.8047 70.4144 58.5858C71.1954 59.3668 71.1954 60.6334 70.4144 61.4144L58.4144 73.4144C57.6334 74.1954 56.3668 74.1954 55.5858 73.4144L49.5858 67.4144C48.8047 66.6333 48.8047 65.3668 49.5858 64.5858C50.3668 63.8047 51.6334 63.8047 52.4144 64.5858L57.0001 69.1715L67.5858 58.5858Z" fill="#0D7CC1"/>
</g>
<defs>
<clipPath id="clip0_2058_4176">
<rect width="64" height="64" fill="white" transform="translate(28 28)"/>
</clipPath>
</defs>
</svg>
