<svg width="120" height="120" viewBox="0 0 120 120" fill="none" xmlns="http://www.w3.org/2000/svg">
<rect width="120" height="120" rx="20" fill="#FEFBF1"/>
<g clip-path="url(#clip0_2058_4160)">
<path d="M60 82C72.1503 82 82 72.1503 82 60C82 47.8497 72.1503 38 60 38C47.8497 38 38 47.8497 38 60C38 72.1503 47.8497 82 60 82Z" fill="#E9C81A"/>
<path d="M82.5858 34.5858C83.3668 33.8047 84.6333 33.8047 85.4144 34.5858C86.1954 35.3668 86.1954 36.6334 85.4144 37.4144L61.4144 61.4144C60.6334 62.1954 59.3668 62.1954 58.5858 61.4144C57.8047 60.6334 57.8047 59.3668 58.5858 58.5858L82.5858 34.5858Z" fill="#0D7CC1"/>
<path d="M43.2803 40.1619C48.2498 35.9632 54.6141 33.7826 61.1143 34.0515C67.6144 34.3205 73.777 37.0192 78.3826 41.614C79.1646 42.3941 79.1659 43.6607 78.3858 44.4426C77.6057 45.2245 76.3394 45.2259 75.5574 44.4458C71.6611 40.5587 66.4477 38.2756 60.9488 38.0481C55.4498 37.8206 50.0659 39.6654 45.8618 43.2173C41.6578 46.7692 38.9398 51.7697 38.2459 57.2295C37.552 62.6892 38.9326 68.2106 42.1145 72.7012C45.2964 77.1918 50.0479 80.3247 55.429 81.48C60.8101 82.6352 66.4289 81.7286 71.1736 78.9397C75.9184 76.1508 79.4436 71.6827 81.0518 66.4192C82.66 61.1557 82.2341 55.4804 79.8585 50.5159C79.3817 49.5195 79.8028 48.3252 80.7991 47.8484C81.7955 47.3716 82.9898 47.7928 83.4666 48.7891C86.2749 54.6575 86.7783 61.3664 84.8773 67.5881C82.9762 73.8099 78.8091 79.0915 73.2005 82.3882C67.5919 85.6848 60.9502 86.7564 54.5894 85.3909C48.2286 84.0253 42.6121 80.3219 38.8509 75.0137C35.0896 69.7055 33.4576 63.1789 34.2779 56.7251C35.0981 50.2713 38.3108 44.3605 43.2803 40.1619Z" fill="#0D7CC1"/>
<path d="M52.0549 48.4813C54.7492 46.6226 58.0096 45.7665 61.2695 46.0621C64.5293 46.3578 67.5825 47.7864 69.8984 50.0995C70.6799 50.88 70.6806 52.1463 69.9001 52.9278C69.1195 53.7094 67.8532 53.7101 67.0717 52.9295C65.4175 51.2774 63.2366 50.2572 60.9081 50.046C58.5797 49.8348 56.2508 50.4461 54.3264 51.7738C52.4019 53.1014 51.0033 55.0614 50.374 57.3131C49.7446 59.5648 49.9241 61.9659 50.8813 64.099C51.8385 66.232 53.5128 67.9624 55.6132 68.9891C57.7137 70.0159 60.1077 70.2741 62.3789 69.7191C64.65 69.1641 66.6549 67.8308 68.0451 65.951C69.4353 64.0712 70.1227 61.7636 69.9882 59.4295C69.9247 58.3269 70.7671 57.3816 71.8698 57.318C72.9726 57.2544 73.9181 58.0968 73.9816 59.1996C74.1699 62.4673 73.2074 65.6978 71.2612 68.3294C69.3149 70.9612 66.508 72.8278 63.3283 73.6048C60.1487 74.3819 56.7973 74.0201 53.8566 72.5826C50.916 71.1451 48.5719 68.7228 47.2319 65.7364C45.8919 62.7501 45.6405 59.3886 46.5217 56.2362C47.4028 53.0839 49.3607 50.34 52.0549 48.4813Z" fill="#0D7CC1"/>
</g>
<defs>
<clipPath id="clip0_2058_4160">
<rect width="64" height="64" fill="white" transform="translate(28 28)"/>
</clipPath>
</defs>
</svg>
