<svg width="120" height="120" viewBox="0 0 120 120" fill="none" xmlns="http://www.w3.org/2000/svg">
<rect width="120" height="120" rx="20" fill="#FEFBF1"/>
<g clip-path="url(#clip0_2058_4180)">
<path d="M60 36C56.4399 36 52.9598 37.0557 49.9997 39.0335C47.0397 41.0114 44.7326 43.8226 43.3702 47.1117C42.0078 50.4008 41.6513 54.02 42.3459 57.5116C43.0404 61.0033 44.7547 64.2106 47.2721 66.7279C49.7894 69.2453 52.9967 70.9596 56.4884 71.6541C59.98 72.3487 63.5992 71.9922 66.8883 70.6298C70.1774 69.2675 72.9886 66.9604 74.9665 64.0003C76.9443 61.0402 78 57.5601 78 54C78 49.2261 76.1036 44.6477 72.7279 41.2721C69.3523 37.8964 64.7739 36 60 36ZM60 62C58.4178 62 56.871 61.5308 55.5554 60.6518C54.2399 59.7727 53.2145 58.5233 52.609 57.0615C52.0035 55.5997 51.845 53.9911 52.1537 52.4393C52.4624 50.8874 53.2243 49.462 54.3432 48.3432C55.462 47.2243 56.8874 46.4624 58.4393 46.1537C59.9911 45.845 61.5997 46.0035 63.0615 46.609C64.5233 47.2145 65.7727 48.2399 66.6518 49.5554C67.5308 50.871 68 52.4178 68 54C68 56.1217 67.1572 58.1566 65.6569 59.6569C64.1566 61.1572 62.1217 62 60 62Z" fill="#E9C81A"/>
<path d="M76 54C76 45.1634 68.8366 38 60 38C51.1634 38 44 45.1634 44 54C44 62.8366 51.1634 70 60 70C68.8366 70 76 62.8366 76 54ZM80 54C80 65.0457 71.0457 74 60 74C48.9543 74 40 65.0457 40 54C40 42.9543 48.9543 34 60 34C71.0457 34 80 42.9543 80 54Z" fill="#0D7CC1"/>
<path d="M66 54C66 50.6863 63.3137 48 60 48C56.6863 48 54 50.6863 54 54C54 57.3137 56.6863 60 60 60C63.3137 60 66 57.3137 66 54ZM70 54C70 59.5228 65.5228 64 60 64C54.4772 64 50 59.5228 50 54C50 48.4772 54.4772 44 60 44C65.5228 44 70 48.4772 70 54Z" fill="#0D7CC1"/>
<path d="M58 80V72C58 70.8954 58.8954 70 60 70C61.1046 70 62 70.8954 62 72V80C62 81.1046 61.1046 82 60 82C58.8954 82 58 81.1046 58 80Z" fill="#0D7CC1"/>
<path d="M84 78C85.1046 78 86 78.8954 86 80C86 81.1046 85.1046 82 84 82H36C34.8954 82 34 81.1046 34 80C34 78.8954 34.8954 78 36 78H84Z" fill="#0D7CC1"/>
</g>
<defs>
<clipPath id="clip0_2058_4180">
<rect width="64" height="64" fill="white" transform="translate(28 28)"/>
</clipPath>
</defs>
</svg>
