<svg width="120" height="120" viewBox="0 0 120 120" fill="none" xmlns="http://www.w3.org/2000/svg">
<rect width="120" height="120" rx="20" fill="#FEFBF1"/>
<g clip-path="url(#clip0_2058_4164)">
<path d="M56 46H40V74H56V46Z" fill="#E9C81A"/>
<path d="M62.9475 54.7498L78.5625 51.3948L75.66 37.5973C75.6068 37.339 75.503 37.0938 75.3546 36.8757C75.2062 36.6577 75.0162 36.4712 74.7955 36.3269C74.5747 36.1826 74.3276 36.0834 74.0684 36.035C73.8092 35.9866 73.5429 35.9899 73.285 36.0448L61.5825 38.5448C61.0622 38.6597 60.6086 38.9758 60.3205 39.424C60.0324 39.8723 59.9334 40.4163 60.045 40.9373L62.9475 54.7498Z" fill="#E9C81A"/>
<path d="M42 40V80H54V40H42ZM58 80C58 82.2091 56.2091 84 54 84H42C39.7909 84 38 82.2091 38 80V40C38 37.7909 39.7909 36 42 36H54C56.2091 36 58 37.7909 58 40V80Z" fill="#0D7CC1"/>
<path d="M72.8688 34.1012C73.3847 33.9915 73.9171 33.9848 74.4355 34.0817C74.954 34.1785 75.4484 34.3768 75.8898 34.6654C76.3313 34.954 76.7113 35.3271 77.008 35.7631C77.3032 36.1969 77.5102 36.6845 77.6171 37.1981L85.9106 76.631L85.9301 76.7284C86.12 77.736 85.9177 78.7797 85.362 79.6444C84.7884 80.5369 83.8848 81.1662 82.8488 81.3951C82.8443 81.3961 82.8397 81.3973 82.8351 81.3983L71.1328 83.8983L71.1311 83.8985C70.6152 84.0083 70.0826 84.0149 69.5642 83.9181C69.0457 83.8212 68.5515 83.6229 68.1101 83.3343C67.6686 83.0458 67.2886 82.6727 66.9919 82.2367C66.6951 81.8006 66.4875 81.3101 66.3811 80.7936V80.7933L58.0893 41.3688L58.0698 41.2714C57.8798 40.2637 58.0822 39.2201 58.6379 38.3554C59.2115 37.4628 60.1151 36.8333 61.1511 36.6044L61.1645 36.6015L72.8671 34.1015L72.8688 34.1012ZM62.0129 40.5104C62.0088 40.5115 62.0052 40.5144 62.0029 40.518C62.0016 40.5199 62.0008 40.5221 62.0004 40.5243L62.0007 40.5309L62.0021 40.5382L70.2971 79.9781C70.2976 79.9807 70.298 79.9834 70.2985 79.9859L81.986 77.4891C81.9905 77.4881 81.9945 77.4856 81.997 77.4818C81.9995 77.4779 82.0002 77.4731 81.9992 77.4686C81.9987 77.4663 81.9982 77.4639 81.9977 77.4615L73.7028 38.0214C73.7023 38.0188 73.7017 38.0162 73.7011 38.0136L62.0129 40.5104Z" fill="#0D7CC1"/>
<path d="M56 44C57.1046 44 58 44.8954 58 46C58 47.1046 57.1046 48 56 48H40C38.8954 48 38 47.1046 38 46C38 44.8954 38.8954 44 40 44H56Z" fill="#0D7CC1"/>
<path d="M56 72C57.1046 72 58 72.8954 58 74C58 75.1046 57.1046 76 56 76H40C38.8954 76 38 75.1046 38 74C38 72.8954 38.8954 72 40 72H56Z" fill="#0D7CC1"/>
<path d="M78.1422 49.4493C79.2221 49.2173 80.2856 49.9046 80.5177 50.9845C80.7497 52.0644 80.0624 53.1279 78.9825 53.36L63.3676 56.715C62.2876 56.947 61.2241 56.2597 60.9921 55.1798C60.76 54.0999 61.4473 53.0364 62.5272 52.8043L78.1422 49.4493Z" fill="#0D7CC1"/>
<path d="M82.2899 69.1749C83.3698 68.9429 84.4334 69.6302 84.6654 70.7101C84.8975 71.79 84.2101 72.8535 83.1303 73.0856L67.5177 76.4406C66.4378 76.6726 65.3743 75.9853 65.1422 74.9054C64.9102 73.8255 65.5975 72.762 66.6774 72.5299L82.2899 69.1749Z" fill="#0D7CC1"/>
</g>
<defs>
<clipPath id="clip0_2058_4164">
<rect width="64" height="64" fill="white" transform="translate(28 28)"/>
</clipPath>
</defs>
</svg>
