<svg width="120" height="120" viewBox="0 0 120 120" fill="none" xmlns="http://www.w3.org/2000/svg">
<rect width="120" height="120" rx="20" fill="#FEFBF1"/>
<g clip-path="url(#clip0_2058_4172)">
<path d="M75.87 78.0001C74.7664 77.9767 73.6906 77.6494 72.7611 77.0541C71.8316 76.4588 71.0842 75.6186 70.6014 74.626C70.1185 73.6334 69.9189 72.5268 70.0244 71.428C70.1299 70.3292 70.5364 69.2808 71.1993 68.3982C71.8622 67.5156 72.7557 66.8329 73.7816 66.4254C74.8074 66.0178 75.9258 65.9011 77.0136 66.0882C78.1015 66.2752 79.1167 66.7587 79.9475 67.4855C80.7783 68.2123 81.3925 69.1542 81.7225 70.2076C84.0921 65.1623 84.6316 59.4495 83.2485 54.0498C81.8654 48.6501 78.646 43.9001 74.1427 40.6153C69.6394 37.3304 64.1332 35.7154 58.5691 36.0475C53.0049 36.3797 47.7299 38.6382 43.6494 42.4354C39.5688 46.2327 36.9372 51.3318 36.2063 56.8577C35.4754 62.3836 36.6907 67.9917 39.6436 72.7193C42.5965 77.4468 47.1029 80.9992 52.3893 82.7666C57.6758 84.5339 63.4125 84.4061 68.615 82.4051C69.3149 81.085 70.3586 79.9788 71.6358 79.2033C72.9129 78.4279 74.3759 78.0121 75.87 78.0001Z" fill="#E9C81A"/>
<path d="M58 46C58 44.8954 58.8954 44 60 44C61.1046 44 62 44.8954 62 46V56.7639L71.1055 52.2112C72.0934 51.7172 73.2948 52.1176 73.7888 53.1055C74.2828 54.0934 73.8824 55.2948 72.8945 55.7888L60.8945 61.7888C60.2746 62.0988 59.5381 62.0658 58.9485 61.7014C58.3589 61.337 58 60.6932 58 60V46Z" fill="#0D7CC1"/>
<path d="M82 60C82 55.6489 80.7097 51.3955 78.2923 47.7776C75.8749 44.1597 72.439 41.3397 68.419 39.6746C64.399 38.0095 59.9756 37.574 55.708 38.4229C51.4405 39.2718 47.5204 41.3669 44.4436 44.4436C41.3669 47.5204 39.2718 51.4405 38.4229 55.708C37.574 59.9756 38.0095 64.399 39.6746 68.419C41.3397 72.439 44.1597 75.8749 47.7776 78.2923C51.3955 80.7097 55.6489 82 60 82C61.1046 82 62 82.8955 62 84C62 85.1046 61.1046 86 60 86C54.8577 86 49.8309 84.4751 45.5552 81.6182C41.2795 78.7613 37.9471 74.7006 35.9793 69.9497C34.0114 65.1989 33.4963 59.9712 34.4995 54.9278C35.5027 49.8843 37.9791 45.2514 41.6153 41.6153C45.2514 37.9791 49.8843 35.5027 54.9278 34.4995C59.9712 33.4963 65.1989 34.0114 69.9497 35.9793C74.7006 37.9471 78.7613 41.2795 81.6182 45.5552C84.4751 49.8309 86 54.8577 86 60C86 61.1046 85.1046 62 84 62C82.8955 62 82 61.1046 82 60Z" fill="#0D7CC1"/>
<path d="M76 76C80.7404 76 84.7782 79.1443 85.9329 83.4861C86.2167 84.5535 85.5814 85.649 84.5139 85.9329C83.4465 86.2167 82.351 85.5814 82.0672 84.5139C81.3868 81.9557 78.9596 80 76 80C73.0404 80 70.6133 81.9557 69.9329 84.5139C69.649 85.5814 68.5535 86.2167 67.4861 85.9329C66.4187 85.649 65.7833 84.5535 66.0672 83.4861C67.2218 79.1443 71.2597 76 76 76Z" fill="#0D7CC1"/>
<path d="M80 72C80 69.7909 78.2091 68 76 68C73.7909 68 72 69.7909 72 72C72 74.2091 73.7909 76 76 76C78.2091 76 80 74.2091 80 72ZM84 72C84 76.4183 80.4183 80 76 80C71.5817 80 68 76.4183 68 72C68 67.5817 71.5817 64 76 64C80.4183 64 84 67.5817 84 72Z" fill="#0D7CC1"/>
</g>
<defs>
<clipPath id="clip0_2058_4172">
<rect width="64" height="64" fill="white" transform="translate(28 28)"/>
</clipPath>
</defs>
</svg>
