<svg width="76" height="76" viewBox="0 0 76 76" fill="none" xmlns="http://www.w3.org/2000/svg">
<g clip-path="url(#clip0_2062_4868)">
<path d="M16.625 14.25H59.375V32.9828C59.375 44.7687 49.9492 54.5359 38.1633 54.625C35.3426 54.6465 32.5455 54.1096 29.9333 53.045C27.3211 51.9805 24.9454 50.4094 22.9432 48.4224C20.941 46.4354 19.3519 44.0718 18.2676 41.4677C17.1832 38.8637 16.6249 36.0708 16.625 33.25V14.25Z" fill="#E9C81A"/>
<path d="M47.5 64.125C48.8117 64.125 49.875 65.1883 49.875 66.5C49.875 67.8117 48.8117 68.875 47.5 68.875H28.5C27.1883 68.875 26.125 67.8117 26.125 66.5C26.125 65.1883 27.1883 64.125 28.5 64.125H47.5Z" fill="#0D7CC1"/>
<path d="M35.625 66.5V54.625C35.625 53.3133 36.6883 52.25 38 52.25C39.3117 52.25 40.375 53.3133 40.375 54.625V66.5C40.375 67.8117 39.3117 68.875 38 68.875C36.6883 68.875 35.625 67.8117 35.625 66.5Z" fill="#0D7CC1"/>
<path d="M2.375 28.5V23.75C2.375 22.4902 2.87551 21.2821 3.76631 20.3913C4.65711 19.5005 5.86522 19 7.125 19H16.625C17.9367 19 19 20.0633 19 21.375C19 22.6867 17.9367 23.75 16.625 23.75H7.125V28.5C7.125 30.3897 7.87563 32.202 9.21182 33.5382C10.548 34.8744 12.3603 35.625 14.25 35.625H17.2188C18.5304 35.625 19.5938 36.6883 19.5938 38C19.5938 39.3117 18.5304 40.375 17.2188 40.375H14.25C11.1006 40.375 8.08013 39.1239 5.85313 36.8969C3.62614 34.6699 2.375 31.6494 2.375 28.5Z" fill="#0D7CC1"/>
<path d="M68.875 28.5V23.75H59.375C58.0633 23.75 57 22.6867 57 21.375C57 20.0633 58.0633 19 59.375 19H68.875C70.1348 19 71.3429 19.5005 72.2337 20.3913C73.1245 21.2821 73.625 22.4902 73.625 23.75V28.5C73.625 31.6494 72.3739 34.6699 70.1469 36.8969C67.9199 39.1239 64.8994 40.375 61.75 40.375H58.7812C57.4696 40.375 56.4062 39.3117 56.4062 38C56.4062 36.6883 57.4696 35.625 58.7812 35.625H61.75C63.6397 35.625 65.452 34.8744 66.7882 33.5382C68.1244 32.202 68.875 30.3897 68.875 28.5Z" fill="#0D7CC1"/>
<path d="M57 32.9827V16.625H19V33.25C18.9999 35.7574 19.4961 38.2401 20.46 40.5547C21.4239 42.8694 22.8366 44.9704 24.6163 46.7366C26.396 48.5028 28.5076 49.8994 30.8295 50.8456C33.1514 51.7919 35.6379 52.2692 38.1452 52.25C48.5881 52.1711 57 43.5028 57 32.9827ZM61.75 32.9827C61.75 46.0345 51.3102 56.9005 38.1812 56.9997L38.1815 57C35.0474 57.0239 31.9394 56.4274 29.0369 55.2446C26.1345 54.0617 23.495 52.3159 21.2703 50.1081C19.0457 47.9003 17.2799 45.274 16.075 42.3806C14.9078 39.5777 14.2892 36.5779 14.2517 33.5437L14.25 33.25V14.25C14.25 12.9383 15.3133 11.875 16.625 11.875H59.375C60.6867 11.875 61.75 12.9383 61.75 14.25V32.9827Z" fill="#0D7CC1"/>
</g>
<defs>
<clipPath id="clip0_2062_4868">
<rect width="76" height="76" fill="white"/>
</clipPath>
</defs>
</svg>
