<svg width="76" height="76" viewBox="0 0 76 76" fill="none" xmlns="http://www.w3.org/2000/svg">
<g clip-path="url(#clip0_2062_4877)">
<path d="M30.0111 47.5H8.3125L20.1875 34.4375L8.3125 21.375H41.8861L30.0111 47.5Z" fill="#E9C81A"/>
<path d="M68.8751 11.875C69.6826 11.875 70.4349 12.2853 70.872 12.9642C71.3092 13.6431 71.3714 14.4977 71.0373 15.2328L47.2873 67.4828C46.7445 68.6769 45.3364 69.205 44.1423 68.6622C42.9482 68.1194 42.4201 66.7113 42.9629 65.5172L53.3115 42.75H33.2501C32.4426 42.75 31.6903 42.3397 31.2531 41.6608C30.816 40.9819 30.7537 40.1273 31.0879 39.3922L42.9629 13.2672L43.0006 13.1886C43.4014 12.3859 44.2229 11.875 45.1251 11.875H68.8751ZM36.9387 38H55.4708L65.1865 16.625H46.6544L36.9387 38Z" fill="#0D7CC1"/>
<path d="M41.8859 19C43.1976 19 44.2609 20.0633 44.2609 21.375C44.2609 22.6867 43.1976 23.75 41.8859 23.75H13.6814L21.9449 32.8398C22.7684 33.7456 22.7684 35.1294 21.9449 36.0352L13.6814 45.125H28.4819L31.0877 39.3922C31.6305 38.1981 33.0386 37.67 34.2327 38.2128C35.4268 38.7556 35.9548 40.1637 35.4121 41.3578L32.1731 48.4828C31.7877 49.3306 30.9422 49.875 30.0109 49.875H8.31238C7.37231 49.875 6.52063 49.3205 6.14032 48.4608C5.76005 47.6011 5.92256 46.5978 6.5549 45.9023L16.9774 34.4375L6.5549 22.9727C5.92256 22.2772 5.76005 21.2739 6.14032 20.4142C6.52063 19.5545 7.37231 19 8.31238 19H41.8859Z" fill="#0D7CC1"/>
</g>
<defs>
<clipPath id="clip0_2062_4877">
<rect width="76" height="76" fill="white"/>
</clipPath>
</defs>
</svg>
