<svg width="76" height="76" viewBox="0 0 76 76" fill="none" xmlns="http://www.w3.org/2000/svg">
<g clip-path="url(#clip0_2062_4883)">
<path d="M38 66.5C53.7401 66.5 66.5 53.7401 66.5 38C66.5 22.2599 53.7401 9.5 38 9.5C22.2599 9.5 9.5 22.2599 9.5 38C9.5 53.7401 22.2599 66.5 38 66.5Z" fill="#E9C81A"/>
<path d="M38 57C39.9675 57 41.5625 55.405 41.5625 53.4375C41.5625 51.47 39.9675 49.875 38 49.875C36.0325 49.875 34.4375 51.47 34.4375 53.4375C34.4375 55.405 36.0325 57 38 57Z" fill="#0D7CC1"/>
<path d="M35.625 42.75V40.375C35.625 39.0633 36.6883 38 38 38C42.2418 38 45.125 35.0526 45.125 32.0625C45.125 29.0724 42.2418 26.125 38 26.125C33.7582 26.125 30.875 29.0724 30.875 32.0625V33.25C30.875 34.5617 29.8117 35.625 28.5 35.625C27.1883 35.625 26.125 34.5617 26.125 33.25V32.0625C26.125 25.8732 31.7503 21.375 38 21.375C44.2497 21.375 49.875 25.8732 49.875 32.0625C49.875 37.4539 45.6064 41.5615 40.375 42.5311V42.75C40.375 44.0617 39.3117 45.125 38 45.125C36.6883 45.125 35.625 44.0617 35.625 42.75Z" fill="#0D7CC1"/>
<path d="M64.125 38C64.125 23.5716 52.4284 11.875 38 11.875C23.5716 11.875 11.875 23.5716 11.875 38C11.875 52.4284 23.5716 64.125 38 64.125C52.4284 64.125 64.125 52.4284 64.125 38ZM68.875 38C68.875 55.0518 55.0518 68.875 38 68.875C20.9482 68.875 7.125 55.0518 7.125 38C7.125 20.9482 20.9482 7.125 38 7.125C55.0518 7.125 68.875 20.9482 68.875 38Z" fill="#0D7CC1"/>
</g>
<defs>
<clipPath id="clip0_2062_4883">
<rect width="76" height="76" fill="white"/>
</clipPath>
</defs>
</svg>
