<svg width="48" height="48" viewBox="0 0 48 48" fill="none" xmlns="http://www.w3.org/2000/svg">
<g clip-path="url(#clip0_2014_5308)">
<mask id="mask0_2014_5308" style="mask-type:luminance" maskUnits="userSpaceOnUse" x="0" y="0" width="48" height="48">
<path d="M48 0H0V48H48V0Z" fill="white"/>
</mask>
<g mask="url(#mask0_2014_5308)">
<path d="M41 14V30H12.7C9.56 30 7 32.56 7 35.7V14C7 6 9 4 17 4H31C39 4 41 6 41 14Z" fill="#0D7CC1"/>
<path d="M41 30V37C41 40.86 37.86 44 34 44H14C10.14 44 7 40.86 7 37V35.7C7 32.56 9.56 30 12.7 30H41Z" fill="#E9C81A"/>
<path d="M32 15.5H16C15.18 15.5 14.5 14.82 14.5 14C14.5 13.18 15.18 12.5 16 12.5H32C32.82 12.5 33.5 13.18 33.5 14C33.5 14.82 32.82 15.5 32 15.5Z" fill="#E9C81A"/>
<path d="M26 22.5H16C15.18 22.5 14.5 21.82 14.5 21C14.5 20.18 15.18 19.5 16 19.5H26C26.82 19.5 27.5 20.18 27.5 21C27.5 21.82 26.82 22.5 26 22.5Z" fill="#E9C81A"/>
</g>
</g>
<defs>
<clipPath id="clip0_2014_5308">
<rect width="48" height="48" fill="white"/>
</clipPath>
</defs>
</svg>
