<svg width="48" height="48" viewBox="0 0 48 48" fill="none" xmlns="http://www.w3.org/2000/svg">
<g clip-path="url(#clip0_2014_5326)">
<mask id="mask0_2014_5326" style="mask-type:luminance" maskUnits="userSpaceOnUse" x="0" y="0" width="48" height="48">
<path d="M48 0H0V48H48V0Z" fill="white"/>
</mask>
<g mask="url(#mask0_2014_5326)">
<path d="M24.0002 43.8604C13.9202 43.8604 5.7002 35.6604 5.7002 25.5604V21.8004C5.7002 21.0204 6.3402 20.4004 7.1002 20.4004C7.8602 20.4004 8.5002 21.0404 8.5002 21.8004V25.5604C8.5002 34.1004 15.4402 41.0404 23.9802 41.0404C32.5202 41.0404 39.4602 34.1004 39.4602 25.5604V21.8004C39.4602 21.0204 40.1002 20.4004 40.8602 20.4004C41.6202 20.4004 42.2602 21.0404 42.2602 21.8004V25.5604C42.3002 35.6604 34.0802 43.8604 24.0002 43.8604Z" fill="#E9C81A"/>
<path d="M23.9998 4C17.2798 4 11.7998 9.48 11.7998 16.2V25.58C11.7998 32.3 17.2798 37.78 23.9998 37.78C30.7198 37.78 36.1998 32.3 36.1998 25.58V16.2C36.1998 9.48 30.7198 4 23.9998 4ZM28.3598 21.18C28.2198 21.72 27.7198 22.08 27.1798 22.08C27.0798 22.08 26.9598 22.06 26.8598 22.04C24.8198 21.48 22.6598 21.48 20.6198 22.04C19.9598 22.22 19.2998 21.84 19.1198 21.18C18.9398 20.54 19.3198 19.86 19.9798 19.68C22.4398 19 25.0398 19 27.4998 19.68C28.1598 19.86 28.5398 20.52 28.3598 21.18ZM30.0598 15.64C29.8798 16.14 29.4198 16.44 28.9198 16.44C28.7798 16.44 28.6398 16.42 28.4998 16.36C25.4398 15.24 22.0798 15.24 19.0198 16.36C18.3798 16.6 17.6798 16.28 17.4398 15.64C17.2198 15.02 17.5398 14.32 18.1798 14.08C21.7798 12.78 25.7398 12.78 29.3198 14.08C29.9598 14.32 30.2798 15.02 30.0598 15.64Z" fill="#0D7CC1"/>
</g>
</g>
<defs>
<clipPath id="clip0_2014_5326">
<rect width="48" height="48" fill="white"/>
</clipPath>
</defs>
</svg>
