<svg width="48" height="48" viewBox="0 0 48 48" fill="none" xmlns="http://www.w3.org/2000/svg">
<g clip-path="url(#clip0_2014_5388)">
<mask id="mask0_2014_5388" style="mask-type:luminance" maskUnits="userSpaceOnUse" x="0" y="0" width="48" height="48">
<path d="M48 0H0V48H48V0Z" fill="white"/>
</mask>
<g mask="url(#mask0_2014_5388)">
<path d="M24 44C35.0456 44 44 35.0456 44 24C44 12.9543 35.0456 4 24 4C12.9543 4 4 12.9543 4 24C4 35.0456 12.9543 44 24 44Z" fill="#0D7CC1"/>
<path d="M24 39.5C15.46 39.5 8.5 32.54 8.5 24C8.5 23.18 9.18 22.5 10 22.5C10.82 22.5 11.5 23.18 11.5 24C11.5 30.9 17.1 36.5 24 36.5C30.9 36.5 36.5 30.9 36.5 24C36.5 17.1 30.9 11.5 24 11.5C23.18 11.5 22.5 10.82 22.5 10C22.5 9.18 23.18 8.5 24 8.5C32.54 8.5 39.5 15.46 39.5 24C39.5 32.54 32.54 39.5 24 39.5Z" fill="#E9C81A"/>
<path d="M24 33.5C23.18 33.5 22.5 32.82 22.5 32C22.5 31.18 23.18 30.5 24 30.5C27.58 30.5 30.5 27.58 30.5 24C30.5 20.42 27.58 17.5 24 17.5C23.18 17.5 22.5 16.82 22.5 16C22.5 15.18 23.18 14.5 24 14.5C29.24 14.5 33.5 18.76 33.5 24C33.5 29.24 29.24 33.5 24 33.5Z" fill="#E9C81A"/>
</g>
</g>
<defs>
<clipPath id="clip0_2014_5388">
<rect width="48" height="48" fill="white"/>
</clipPath>
</defs>
</svg>
