<svg width="48" height="48" viewBox="0 0 48 48" fill="none" xmlns="http://www.w3.org/2000/svg">
<g clip-path="url(#clip0_2014_5372)">
<mask id="mask0_2014_5372" style="mask-type:luminance" maskUnits="userSpaceOnUse" x="0" y="0" width="48" height="48">
<path d="M48 0H0V48H48V0Z" fill="white"/>
</mask>
<g mask="url(#mask0_2014_5372)">
<path d="M33.5004 7.12V4C33.5004 3.18 32.8204 2.5 32.0004 2.5C31.1804 2.5 30.5004 3.18 30.5004 4V7H17.5004V4C17.5004 3.18 16.8204 2.5 16.0004 2.5C15.1804 2.5 14.5004 3.18 14.5004 4V7.12C9.10044 7.62 6.48046 10.84 6.08046 15.62C6.04046 16.2 6.52046 16.68 7.08046 16.68H40.9204C41.5004 16.68 41.9804 16.18 41.9204 15.62C41.5204 10.84 38.9004 7.62 33.5004 7.12Z" fill="#E9C81A"/>
<path d="M40 19.6797C41.1 19.6797 42 20.5796 42 21.6796V33.9996C42 39.9996 39 43.9996 32 43.9996H16C9 43.9996 6 39.9996 6 33.9996V21.6796C6 20.5796 6.9 19.6797 8 19.6797H40Z" fill="#0D7CC1"/>
<path d="M29.6798 29.9784L28.6798 30.9984H28.6598L22.5998 37.0584C22.3398 37.3184 21.7998 37.5984 21.4198 37.6384L18.7199 38.0384C17.7399 38.1784 17.0599 37.4784 17.1999 36.5184L17.5799 33.7984C17.6399 33.4184 17.8999 32.8984 18.1599 32.6184L24.2398 26.5584L25.2398 25.5384C25.8998 24.8784 26.6398 24.3984 27.4398 24.3984C28.1198 24.3984 28.8598 24.7184 29.6798 25.5384C31.4798 27.3384 30.8998 28.7584 29.6798 29.9784Z" fill="#E9C81A"/>
</g>
</g>
<defs>
<clipPath id="clip0_2014_5372">
<rect width="48" height="48" fill="white"/>
</clipPath>
</defs>
</svg>
